# File created by Blade
# Date/Time:  Tue Sep 30 19:12:16 2014
#---------------------------------------------------------
:version 1.10
:name HOM
:units
  mass 1.0
  length 1.000000
  angle deg
:documentation
     Acclaim Skeleton File
:root
   axis xyz
   order TX TY TZ RX RY RZ
   position 0.000000 0.000000 0.000000
   orientation 0 0 0
:bonedata
   begin
      id 1
      name Spine_dum
      direction 0.000000 1.000000 0.000000
      length 7.508948
      axis 0.0 0.0 0.0 xyz
   end
   begin
      id 2
      name LeftUpLeg_dum
      direction 1.000000 0.000000 0.000000
      length 3.000560
      axis 0.0 0.0 0.0 xyz
   end
   begin
      id 3
      name RightUpLeg_dum
      direction -1.000000 0.000000 0.000000
      length 3.000560
      axis 0.0 0.0 0.0 xyz
   end
   begin
      id 4
      name Spine
      direction 0.000000 1.000000 0.000000
      length 0.000000
      axis 0.0 0.0 0.0 xyz
      dof rx ry rz
   end
   begin
      id 5
      name Spine_dum1
      direction 0.000000 1.000000 0.000000
      length 13.861154
      axis 0.0 0.0 0.0 xyz
   end
   begin
      id 6
      name Spine_dum2
      direction 0.000000 1.000000 0.000000
      length 8.204781
      axis 0.0 0.0 0.0 xyz
   end
   begin
      id 7
      name Spine_dum3
      direction 0.000000 1.000000 0.000000
      length 8.204781
      axis 0.0 0.0 0.0 xyz
   end
   begin
      id 8
      name Head
      direction 0.000000 1.000000 0.000000
      length 4.527550
      axis 0.0 0.0 0.0 xyz
      dof rx ry rz
   end
   begin
      id 9
      name LeftShoulder
      direction 1.000000 0.000000 0.000000
      length 6.635956
      axis 0.0 0.0 -90.0 xyz
      dof rx ry rz
   end
   begin
      id 10
      name LeftArm
      direction 1.000000 0.000000 0.000000
      length 10.274218
      axis 0.0 0.0 -90.0 xyz
      dof rx ry rz
   end
   begin
      id 11
      name LeftForeArm
      direction 1.000000 0.000000 0.000000
      length 8.522147
      axis 0.0 0.0 -90.0 xyz
      dof ry rz rx
   end
   begin
      id 12
      name LeftHand
      direction 0.000000 0.000000 0.000000
      length 0.000000
      axis 0.0 0.0 -90.0 xyz
      dof rx ry rz
   end
   begin
      id 13
      name LeftHand_dum1
      direction 0.000000 0.000000 0.000000
      length 0.000000
      axis 0.0 0.0 -90.0 xyz
   end
   begin
      id 14
      name LeftHand_dum2
      direction 1.000000 0.000000 0.000000
      length 3.937000
      axis 0.0 0.0 -90.0 xyz
   end
   begin
      id 15
      name LeftHandThumb1
      direction 0.000000 0.000000 1.000000
      length 3.937000
      axis 0.0 0.0 -90.0 xyz
      dof rx rz ry
   end
   begin
      id 16
      name RightShoulder
      direction -1.000000 0.000000 0.000000
      length 6.635956
      axis 0.0 0.0 90.0 xyz
      dof rx ry rz
   end
   begin
      id 17
      name RightArm
      direction -1.000000 0.000000 0.000000
      length 10.274218
      axis 0.0 0.0 90.0 xyz
      dof rx ry rz
   end
   begin
      id 18
      name RightForeArm
      direction -1.000000 0.000000 0.000000
      length 8.522147
      axis 0.0 0.0 90.0 xyz
      dof ry rz rx
   end
   begin
      id 19
      name RightHand
      direction 0.000000 0.000000 0.000000
      length 0.000000
      axis 0.0 0.0 90.0 xyz
      dof rx ry rz
   end
   begin
      id 20
      name RightHand_dum1
      direction 0.000000 0.000000 0.000000
      length 0.000000
      axis 0.0 0.0 90.0 xyz
   end
   begin
      id 21
      name RightHand_dum2
      direction -1.000000 0.000000 0.000000
      length 3.937000
      axis 0.0 0.0 90.0 xyz
   end
   begin
      id 22
      name RightHandThumb1
      direction 0.000000 0.000000 1.000000
      length 3.937000
      axis 0.0 0.0 90.0 xyz
      dof rx rz ry
   end
   begin
      id 23
      name LeftUpLeg
      direction 0.000000 -1.000000 0.000000
      length 16.490845
      axis 0.0 0.0 0.0 xyz
      dof rx ry rz
   end
   begin
      id 24
      name LeftLeg
      direction 0.000000 -1.000000 0.000000
      length 14.556576
      axis 0.0 0.0 0.0 xyz
      dof rx ry rz
   end
   begin
      id 25
      name LeftFoot
      direction 0.000000 -0.258819 0.965926
      length 4.831116
      axis 15.0 0.0 0.0 xyz
      dof rx ry rz
   end
   begin
      id 26
      name LeftToeBase
      direction 0.000000 0.000000 1.000000
      length 2.952750
      axis 0.0 0.0 0.0 xyz
      dof rx ry rz
   end
   begin
      id 27
      name RightUpLeg
      direction 0.000000 -1.000000 0.000000
      length 16.490845
      axis 0.0 0.0 0.0 xyz
      dof rx ry rz
   end
   begin
      id 28
      name RightLeg
      direction 0.000000 -1.000000 0.000000
      length 14.556576
      axis 0.0 0.0 0.0 xyz
      dof rx ry rz
   end
   begin
      id 29
      name RightFoot
      direction 0.000000 -0.258819 0.965926
      length 4.831116
      axis 15.0 0.0 0.0 xyz
      dof rx ry rz
   end
   begin
      id 30
      name RightToeBase
      direction 0.000000 0.000000 1.000000
      length 2.952750
      axis 0.0 0.0 0.0 xyz
      dof rx ry rz
   end
:hierarchy
   begin
      root Spine_dum LeftUpLeg_dum RightUpLeg_dum
      Spine_dum Spine
      LeftUpLeg_dum LeftUpLeg
      RightUpLeg_dum RightUpLeg
      Spine Spine_dum1 Spine_dum2 Spine_dum3
      Spine_dum1 Head
      Spine_dum2 LeftShoulder
      Spine_dum3 RightShoulder
      LeftShoulder LeftArm
      LeftArm LeftForeArm
      LeftForeArm LeftHand
      LeftHand LeftHand_dum1 LeftHand_dum2
      LeftHand_dum1 LeftHandThumb1
      RightShoulder RightArm
      RightArm RightForeArm
      RightForeArm RightHand
      RightHand RightHand_dum1 RightHand_dum2
      RightHand_dum1 RightHandThumb1
      LeftUpLeg LeftLeg
      LeftLeg LeftFoot
      LeftFoot LeftToeBase
      RightUpLeg RightLeg
      RightLeg RightFoot
      RightFoot RightToeBase
   end

# File created by Blade
# Date/Time:  Thu Sep 25 17:33:50 2014
# Frame Rate: 120.000 fps
#------------------------------------------------------
:FULLY-SPECIFIED
:DEGREES
1
root -9.784338 32.811213 -7.078967 11.774549 1.835742 -1.443578
Spine -10.999996 4.945005 1.410588
Head -11.515829 -7.674204 8.885075
LeftShoulder -11.289609 24.087707 28.372943
LeftArm 23.495759 -22.748708 -31.423594
LeftForeArm 7.562690 -0.000000 14.251274
LeftHand -27.976447 -0.000000 -3.946422
LeftHandThumb1 -26.253704 0.000000 33.147579
RightShoulder -16.812914 10.614536 -40.199923
RightArm -8.665869 5.559747 34.138023
RightForeArm -31.002751 -0.000000 18.743918
RightHand -11.645475 -0.000000 4.243424
RightHandThumb1 -24.326973 -0.000000 -32.862282
LeftUpLeg -8.056353 5.485256 4.042820
LeftLeg 3.449412 -0.000000 -0.000000
LeftFoot -14.879207 11.258042 -22.927555
LeftToeBase 2.710320 -0.000000 -0.000000
RightUpLeg -9.655905 -7.034742 0.494537
RightLeg 4.749601 -0.000000 -0.000000
RightFoot -10.061326 -6.443618 -4.173980
RightToeBase -0.138315 -0.000000 0.000000
2
root -9.795107 32.811883 -7.079330 11.770003 1.830024 -1.449271
Spine -11.006677 4.975001 1.420221
Head -11.426515 -7.679133 8.855211
LeftShoulder -11.255961 24.085865 28.370617
LeftArm 23.479230 -22.738718 -31.391388
LeftForeArm 7.587738 -0.000000 14.228355
LeftHand -27.906496 0.000000 -3.912375
LeftHandThumb1 -26.253704 0.000000 33.147579
RightShoulder -16.804240 10.624068 -40.218151
RightArm -8.674104 5.581151 34.152940
RightForeArm -31.038848 0.000000 18.772109
RightHand -11.603118 -0.000000 4.234305
RightHandThumb1 -24.326973 -0.000000 -32.862282
LeftUpLeg -8.062461 5.459990 4.073145
LeftLeg 3.473350 -0.000000 -0.000000
LeftFoot -14.885178 11.264343 -23.009315
LeftToeBase 2.667321 -0.000000 -0.000000
RightUpLeg -9.664922 -7.030644 0.519695
RightLeg 4.772546 -0.000000 -0.000000
RightFoot -10.059341 -6.448079 -4.218561
RightToeBase -0.124791 -0.000000 0.000000
3
root -9.805669 32.812639 -7.080303 11.767839 1.815994 -1.457075
Spine -11.002025 4.987297 1.436677
Head -11.394585 -7.736625 8.899398
LeftShoulder -11.273247 24.077951 28.357880
LeftArm 23.479079 -22.738665 -31.383349
LeftForeArm 7.575099 0.000000 14.236590
LeftHand -27.909797 -0.000000 -3.869478
LeftHandThumb1 -26.253704 0.000000 33.147579
RightShoulder -16.787732 10.660679 -40.223489
RightArm -8.676814 5.587905 34.150219
RightForeArm -31.089794 -0.000000 18.818795
RightHand -11.639555 -0.000000 4.239351
RightHandThumb1 -24.326973 -0.000000 -32.862282
LeftUpLeg -8.085618 5.461706 4.100170
LeftLeg 3.528341 -0.000000 -0.000000
LeftFoot -14.907732 11.270134 -23.055640
LeftToeBase 2.681795 -0.000000 -0.000000
RightUpLeg -9.684316 -7.009773 0.542645
RightLeg 4.808423 -0.000000 -0.000000
RightFoot -10.068259 -6.441887 -4.213780
RightToeBase -0.153903 -0.000000 0.000000
4
root -9.814975 32.813540 -7.081462 11.766300 1.810907 -1.454566
Spine -11.000401 5.001242 1.447664
Head -11.301266 -7.666273 8.820227
LeftShoulder -11.286644 24.135859 28.371905
LeftArm 23.520500 -22.812895 -31.470614
LeftForeArm 7.510979 -0.000000 14.306286
LeftHand -27.919905 0.000000 -3.552470
LeftHandThumb1 -26.253704 0.000000 33.147579
RightShoulder -16.768492 10.688986 -40.233571
RightArm -8.686719 5.568581 34.149098
RightForeArm -31.079204 0.000000 18.859494
RightHand -11.652032 -0.000000 4.224155
RightHandThumb1 -24.326973 -0.000000 -32.862282
LeftUpLeg -8.102676 5.410677 4.121467
LeftLeg 3.564924 -0.000000 -0.000000
LeftFoot -14.934638 11.303335 -23.150736
LeftToeBase 2.688097 -0.000000 -0.000000
RightUpLeg -9.698077 -6.989632 0.555284
RightLeg 4.834146 -0.000000 -0.000000
RightFoot -10.068072 -6.467249 -4.268078
RightToeBase -0.153755 -0.000000 0.000000
5
root -9.825965 32.814527 -7.082011 11.757026 1.800711 -1.455899
Spine -10.988882 5.019750 1.455587
Head -11.257613 -7.704943 8.842432
LeftShoulder -11.285072 24.141302 28.372626
LeftArm 23.527829 -22.873853 -31.506166
LeftForeArm 7.588376 -0.000000 14.318211
LeftHand -27.876381 -0.000000 -3.581456
LeftHandThumb1 -26.253704 0.000000 33.147579
RightShoulder -16.757365 10.715332 -40.242653
RightArm -8.695227 5.554029 34.154618
RightForeArm -31.084407 -0.000000 18.905623
RightHand -11.518336 -0.000000 4.228500
RightHandThumb1 -24.326973 -0.000000 -32.862282
LeftUpLeg -8.118007 5.384260 4.149347
LeftLeg 3.616121 -0.000000 -0.000000
LeftFoot -14.943750 11.310434 -23.229698
LeftToeBase 2.661113 -0.000000 -0.000000
RightUpLeg -9.695768 -6.957176 0.568631
RightLeg 4.844492 -0.000000 -0.000000
RightFoot -10.082984 -6.465891 -4.211278
RightToeBase -0.130430 -0.000000 0.000000
6
root -9.836334 32.815901 -7.083244 11.747492 1.794644 -1.447519
Spine -10.979145 5.032064 1.450994
Head -11.178920 -7.684032 8.823547
LeftShoulder -11.264228 24.120995 28.384166
LeftArm 23.496948 -22.862073 -31.497030
LeftForeArm 7.589270 -0.000000 14.316578
LeftHand -27.881297 -0.000000 -3.578691
LeftHandThumb1 -26.253704 0.000000 33.147579
RightShoulder -16.750092 10.696729 -40.202288
RightArm -8.606367 5.550853 34.140586
RightForeArm -31.028193 0.000000 18.894307
RightHand -11.653563 0.000000 4.252293
RightHandThumb1 -24.326973 -0.000000 -32.862282
LeftUpLeg -8.131371 5.302843 4.172134
LeftLeg 3.663358 -0.000000 -0.000000
LeftFoot -14.976102 11.367473 -23.323495
LeftToeBase 2.640518 -0.000000 -0.000000
RightUpLeg -9.706311 -6.958889 0.582563
RightLeg 4.874749 -0.000000 -0.000000
RightFoot -10.063315 -6.482801 -4.296091
RightToeBase -0.204703 -0.000000 0.000000
7
root -9.846993 32.817106 -7.085622 11.735734 1.791221 -1.440080
Spine -10.961142 5.046905 1.450286
Head -11.101690 -7.653227 8.813397
LeftShoulder -11.261802 24.139228 28.374852
LeftArm 23.518584 -22.898452 -31.504452
LeftForeArm 7.596620 -0.000000 14.307822
LeftHand -27.872854 -0.000000 -3.605643
LeftHandThumb1 -26.253704 0.000000 33.147579
RightShoulder -16.721315 10.730361 -40.189272
RightArm -8.610593 5.543473 34.119510
RightForeArm -31.020898 0.000000 18.896157
RightHand -11.480790 -0.000000 4.211420
RightHandThumb1 -24.326973 -0.000000 -32.862282
LeftUpLeg -8.160241 5.260299 4.192464
LeftLeg 3.741874 -0.000000 -0.000000
LeftFoot -14.990597 11.378672 -23.415729
LeftToeBase 2.598641 -0.000000 -0.000000
RightUpLeg -9.714803 -6.927591 0.589071
RightLeg 4.905868 -0.000000 -0.000000
RightFoot -10.066345 -6.520586 -4.307373
RightToeBase -0.198491 -0.000000 0.000000
